<?xml version="1.0" encoding="UTF-8" standalone="no"?><svg xmlns="http://www.w3.org/2000/svg" xmlns:xlink="http://www.w3.org/1999/xlink" contentScriptType="application/ecmascript" contentStyleType="text/css" height="311px" preserveAspectRatio="none" style="width:685px;height:311px;" version="1.1" viewBox="0 0 685 311" width="685px" zoomAndPan="magnify"><defs><filter height="300%" id="f1c979v3pzzhy5" width="300%" x="-1" y="-1"><feGaussianBlur result="blurOut" stdDeviation="2.0"/><feColorMatrix in="blurOut" result="blurOut2" type="matrix" values="0 0 0 0 0 0 0 0 0 0 0 0 0 0 0 0 0 0 .4 0"/><feOffset dx="4.0" dy="4.0" in="blurOut2" result="blurOut3"/><feBlend in="SourceGraphic" in2="blurOut3" mode="normal"/></filter></defs><g><!--entity 玩家--><ellipse cx="192" cy="18" fill="#FEFECE" filter="url(#f1c979v3pzzhy5)" rx="8" ry="8" style="stroke: #A80036; stroke-width: 2.0;"/><path d="M192,26 L192,53 M179,34 L205,34 M192,53 L179,68 M192,53 L205,68 " fill="none" filter="url(#f1c979v3pzzhy5)" style="stroke: #A80036; stroke-width: 2.0;"/><text fill="#000000" font-family="sans-serif" font-size="14" lengthAdjust="spacingAndGlyphs" textLength="28" x="178" y="91.0439">玩家</text><ellipse cx="28.799" cy="171.52" fill="#FEFECE" filter="url(#f1c979v3pzzhy5)" rx="22.799" ry="16.52" style="stroke: #A80036; stroke-width: 1.5;"/><text fill="#000000" font-family="sans-serif" font-size="14" lengthAdjust="spacingAndGlyphs" textLength="28" x="14.799" y="177.58">注册</text><ellipse cx="230.799" cy="171.52" fill="#FEFECE" filter="url(#f1c979v3pzzhy5)" rx="22.799" ry="16.52" style="stroke: #A80036; stroke-width: 1.5;"/><text fill="#000000" font-family="sans-serif" font-size="14" lengthAdjust="spacingAndGlyphs" textLength="28" x="216.799" y="177.58">登录</text><ellipse cx="332.098" cy="171.52" fill="#FEFECE" filter="url(#f1c979v3pzzhy5)" rx="42.598" ry="16.52" style="stroke: #A80036; stroke-width: 1.5;"/><text fill="#000000" font-family="sans-serif" font-size="14" lengthAdjust="spacingAndGlyphs" textLength="56" x="304.098" y="177.58">创建角色</text><ellipse cx="130.098" cy="171.52" fill="#FEFECE" filter="url(#f1c979v3pzzhy5)" rx="42.598" ry="16.52" style="stroke: #A80036; stroke-width: 1.5;"/><text fill="#000000" font-family="sans-serif" font-size="14" lengthAdjust="spacingAndGlyphs" textLength="56" x="102.098" y="177.58">删除角色</text><ellipse cx="452.098" cy="171.52" fill="#FEFECE" filter="url(#f1c979v3pzzhy5)" rx="42.598" ry="16.52" style="stroke: #A80036; stroke-width: 1.5;"/><text fill="#000000" font-family="sans-serif" font-size="14" lengthAdjust="spacingAndGlyphs" textLength="56" x="424.098" y="177.58">进入游戏</text><!--entity 管理员--><ellipse cx="397" cy="18" fill="#FEFECE" filter="url(#f1c979v3pzzhy5)" rx="8" ry="8" style="stroke: #A80036; stroke-width: 2.0;"/><path d="M397,26 L397,53 M384,34 L410,34 M397,53 L384,68 M397,53 L410,68 " fill="none" filter="url(#f1c979v3pzzhy5)" style="stroke: #A80036; stroke-width: 2.0;"/><text fill="#000000" font-family="sans-serif" font-size="14" lengthAdjust="spacingAndGlyphs" textLength="42" x="376" y="91.0439">管理员</text><ellipse cx="572.098" cy="171.52" fill="#FEFECE" filter="url(#f1c979v3pzzhy5)" rx="42.598" ry="16.52" style="stroke: #A80036; stroke-width: 1.5;"/><text fill="#000000" font-family="sans-serif" font-size="14" lengthAdjust="spacingAndGlyphs" textLength="56" x="544.098" y="177.58">管理游戏</text><ellipse cx="512.098" cy="283.52" fill="#FEFECE" filter="url(#f1c979v3pzzhy5)" rx="42.598" ry="16.52" style="stroke: #A80036; stroke-width: 1.5;"/><text fill="#000000" font-family="sans-serif" font-size="14" lengthAdjust="spacingAndGlyphs" textLength="56" x="484.098" y="289.58">删除玩家</text><ellipse cx="632.098" cy="283.52" fill="#FEFECE" filter="url(#f1c979v3pzzhy5)" rx="42.598" ry="16.52" style="stroke: #A80036; stroke-width: 1.5;"/><text fill="#000000" font-family="sans-serif" font-size="14" lengthAdjust="spacingAndGlyphs" textLength="56" x="604.098" y="289.58">修改角色</text><!--link 玩家 to 注册--><path d="M176.958,62.936 C147.39,84.431 81.7158,132.176 48.7218,156.162 " fill="none" id="玩家-注册" style="stroke: #A80036; stroke-width: 1.0;"/><polygon fill="#A80036" points="44.4816,159.245,54.1133,157.1882,48.5258,156.3049,49.4091,150.7174,44.4816,159.245" style="stroke: #A80036; stroke-width: 1.0;"/><!--link 玩家 to 登录--><path d="M205.86,94.112 C212.154,113.238 219.307,134.97 224.369,150.351 " fill="none" id="玩家-登录" style="stroke: #A80036; stroke-width: 1.0;"/><polygon fill="#A80036" points="226.001,155.311,226.9869,145.5116,224.4379,150.5616,219.3879,148.0126,226.001,155.311" style="stroke: #A80036; stroke-width: 1.0;"/><!--link 玩家 to 创建角色--><path d="M207.249,64.907 C232.376,86.176 282.528,128.626 310.995,152.721 " fill="none" id="玩家-创建角色" style="stroke: #A80036; stroke-width: 1.0;"/><polygon fill="#A80036" points="315.032,156.138,310.7471,147.2701,311.2157,152.9075,305.5783,153.3762,315.032,156.138" style="stroke: #A80036; stroke-width: 1.0;"/><!--link 玩家 to 删除角色--><path d="M176.992,80.686 C165.692,102.281 150.49,131.337 140.476,150.477 " fill="none" id="玩家-删除角色" style="stroke: #A80036; stroke-width: 1.0;"/><polygon fill="#A80036" points="138.048,155.118,145.7638,148.997,140.3654,150.6875,138.6749,145.2891,138.048,155.118" style="stroke: #A80036; stroke-width: 1.0;"/><!--link 玩家 to 进入游戏--><path d="M207.103,58.883 C248.531,77.765 364.604,130.668 420.772,156.267 " fill="none" id="玩家-进入游戏" style="stroke: #A80036; stroke-width: 1.0;"/><polygon fill="#A80036" points="425.364,158.36,418.8322,150.9887,420.8139,156.2871,415.5156,158.2689,425.364,158.36" style="stroke: #A80036; stroke-width: 1.0;"/><!--link 管理员 to 登录--><path d="M375.976,67.008 C343.747,90.015 282.554,133.698 250.97,156.244 " fill="none" id="管理员-登录" style="stroke: #A80036; stroke-width: 1.0;"/><polygon fill="#A80036" points="246.9,159.149,256.549,157.175,250.9693,156.2438,251.9006,150.6641,246.9,159.149" style="stroke: #A80036; stroke-width: 1.0;"/><!--link 管理员 to 创建角色--><path d="M375.896,90.474 C364.85,110.611 351.793,134.416 342.807,150.798 " fill="none" id="管理员-创建角色" style="stroke: #A80036; stroke-width: 1.0;"/><polygon fill="#A80036" points="340.386,155.212,348.2207,149.244,342.7902,150.8279,341.2062,145.3974,340.386,155.212" style="stroke: #A80036; stroke-width: 1.0;"/><!--link 管理员 to 删除角色--><path d="M375.602,61.497 C328.754,82.289 216.911,131.927 161.8,156.387 " fill="none" id="管理员-删除角色" style="stroke: #A80036; stroke-width: 1.0;"/><polygon fill="#A80036" points="156.968,158.531,166.8169,158.5356,161.538,156.5024,163.5711,151.2236,156.968,158.531" style="stroke: #A80036; stroke-width: 1.0;"/><!--link 管理员 to 进入游戏--><path d="M416.546,94.112 C425.444,113.284 435.558,135.074 442.7,150.462 " fill="none" id="管理员-进入游戏" style="stroke: #A80036; stroke-width: 1.0;"/><polygon fill="#A80036" points="444.816,155.021,444.6543,145.1735,442.7106,150.4859,437.3981,148.5422,444.816,155.021" style="stroke: #A80036; stroke-width: 1.0;"/><!--link 管理员 to 管理游戏--><path d="M418.109,66.294 C450.648,88.327 512.901,130.481 547.421,153.856 " fill="none" id="管理员-管理游戏" style="stroke: #A80036; stroke-width: 1.0;"/><polygon fill="#A80036" points="551.897,156.888,546.6868,148.5301,547.7566,154.0849,542.2019,155.1547,551.897,156.888" style="stroke: #A80036; stroke-width: 1.0;"/><!--link 管理游戏 to 删除玩家--><path d="M554.1,190.763 C547.102,198.65 539.462,208.2863 534,218 C525.185,233.6752 519.082,253.4749 515.578,266.9751 " fill="none" id="管理游戏-删除玩家" style="stroke: #A80036; stroke-width: 1.0; stroke-dasharray: 7.0,7.0;"/><polygon fill="#A80036" points="557.472,187.039,548.4659,191.0253,554.1158,190.7452,554.3959,196.3951,557.472,187.039" style="stroke: #A80036; stroke-width: 1.0;"/><text fill="#000000" font-family="sans-serif" font-size="13" lengthAdjust="spacingAndGlyphs" textLength="53" x="535" y="233.8979">«extend»</text><!--link 管理游戏 to 修改角色--><path d="M582.873,192.435 C594.557,213.8539 612.878,247.4434 623.535,266.9803 " fill="none" id="管理游戏-修改角色" style="stroke: #A80036; stroke-width: 1.0; stroke-dasharray: 7.0,7.0;"/><polygon fill="#A80036" points="580.343,187.795,581.142,197.6114,582.7377,192.1843,588.1648,193.7799,580.343,187.795" style="stroke: #A80036; stroke-width: 1.0;"/><text fill="#000000" font-family="sans-serif" font-size="13" lengthAdjust="spacingAndGlyphs" textLength="53" x="606" y="233.8979">«extend»</text><!--
@startuml 1

玩家 - -> (注册)
玩家 - -> (登录)
玩家 - -> (创建角色)
玩家 - -> (删除角色)
玩家 - -> (进入游戏)

管理员 - -> (登录)
管理员 - -> (创建角色)
管理员 - -> (删除角色)
管理员 - -> (进入游戏)
管理员 - -> (管理游戏)

(管理游戏) <.. (删除玩家): <<extend>>
(管理游戏) <.. (修改角色): <<extend>>

@enduml

PlantUML version 1.2018.12(Sun Oct 21 18:15:15 CST 2018)
(GPL source distribution)
Java Runtime: Java(TM) SE Runtime Environment
JVM: Java HotSpot(TM) 64-Bit Server VM
Java Version: 1.8.0_151-b12
Operating System: Windows 10
OS Version: 10.0
Default Encoding: GBK
Language: zh
Country: CN
--></g></svg>