<?xml version="1.0" encoding="UTF-8" standalone="no"?><svg xmlns="http://www.w3.org/2000/svg" xmlns:xlink="http://www.w3.org/1999/xlink" contentScriptType="application/ecmascript" contentStyleType="text/css" height="339px" preserveAspectRatio="none" style="width:745px;height:339px;" version="1.1" viewBox="0 0 745 339" width="745px" zoomAndPan="magnify"><defs><filter height="300%" id="f1o14i7sn24061" width="300%" x="-1" y="-1"><feGaussianBlur result="blurOut" stdDeviation="2.0"/><feColorMatrix in="blurOut" result="blurOut2" type="matrix" values="0 0 0 0 0 0 0 0 0 0 0 0 0 0 0 0 0 0 .4 0"/><feOffset dx="4.0" dy="4.0" in="blurOut2" result="blurOut3"/><feBlend in="SourceGraphic" in2="blurOut3" mode="normal"/></filter></defs><g><!--entity 玩家--><ellipse cx="426" cy="37" fill="#FEFECE" filter="url(#f1o14i7sn24061)" rx="8" ry="8" style="stroke: #A80036; stroke-width: 2.0;"/><path d="M426,45 L426,72 M413,53 L439,53 M426,72 L413,87 M426,72 L439,87 " fill="none" filter="url(#f1o14i7sn24061)" style="stroke: #A80036; stroke-width: 2.0;"/><text fill="#000000" font-family="sans-serif" font-size="14" lengthAdjust="spacingAndGlyphs" textLength="28" x="412" y="110.0439">玩家</text><ellipse cx="362.799" cy="195.02" fill="#FEFECE" filter="url(#f1o14i7sn24061)" rx="22.799" ry="16.52" style="stroke: #A80036; stroke-width: 1.5;"/><text fill="#000000" font-family="sans-serif" font-size="14" lengthAdjust="spacingAndGlyphs" textLength="28" x="348.799" y="201.08">移动</text><ellipse cx="466.9264" cy="195.02" fill="#FEFECE" filter="url(#f1o14i7sn24061)" rx="45.4264" ry="16.52" style="stroke: #A80036; stroke-width: 1.5;"/><text fill="#000000" font-family="sans-serif" font-size="14" lengthAdjust="spacingAndGlyphs" textLength="60" x="436.9264" y="201.08">购买/出售</text><ellipse cx="262.098" cy="195.02" fill="#FEFECE" filter="url(#f1o14i7sn24061)" rx="42.598" ry="16.52" style="stroke: #A80036; stroke-width: 1.5;"/><text fill="#000000" font-family="sans-serif" font-size="14" lengthAdjust="spacingAndGlyphs" textLength="56" x="234.098" y="201.08">进入副本</text><ellipse cx="547.9534" cy="70.1907" fill="#FEFECE" filter="url(#f1o14i7sn24061)" rx="71.4534" ry="16.6907" style="stroke: #A80036; stroke-width: 1.5;"/><text fill="#000000" font-family="sans-serif" font-size="14" lengthAdjust="spacingAndGlyphs" textLength="98" x="498.9534" y="76.2507">与其它玩家交互</text><ellipse cx="641.1304" cy="195.1261" fill="#FEFECE" filter="url(#f1o14i7sn24061)" rx="93.6304" ry="21.1261" style="stroke: #A80036; stroke-width: 1.5;"/><text fill="#000000" font-family="sans-serif" font-size="14" lengthAdjust="spacingAndGlyphs" textLength="154" x="564.1304" y="201.1861">转移物品（仓库、背包）</text><!--entity 管理员--><ellipse cx="329" cy="37" fill="#FEFECE" filter="url(#f1o14i7sn24061)" rx="8" ry="8" style="stroke: #A80036; stroke-width: 2.0;"/><path d="M329,45 L329,72 M316,53 L342,53 M329,72 L316,87 M329,72 L342,87 " fill="none" filter="url(#f1o14i7sn24061)" style="stroke: #A80036; stroke-width: 2.0;"/><text fill="#000000" font-family="sans-serif" font-size="14" lengthAdjust="spacingAndGlyphs" textLength="42" x="308" y="110.0439">管理员</text><ellipse cx="142.098" cy="195.02" fill="#FEFECE" filter="url(#f1o14i7sn24061)" rx="42.598" ry="16.52" style="stroke: #A80036; stroke-width: 1.5;"/><text fill="#000000" font-family="sans-serif" font-size="14" lengthAdjust="spacingAndGlyphs" textLength="56" x="114.098" y="201.08">管理游戏</text><ellipse cx="71.2254" cy="311.52" fill="#FEFECE" filter="url(#f1o14i7sn24061)" rx="65.2254" ry="16.52" style="stroke: #A80036; stroke-width: 1.5;"/><text fill="#000000" font-family="sans-serif" font-size="14" lengthAdjust="spacingAndGlyphs" textLength="88" x="27.2254" y="317.58">赠送/拿走物品</text><ellipse cx="214.098" cy="311.52" fill="#FEFECE" filter="url(#f1o14i7sn24061)" rx="42.598" ry="16.52" style="stroke: #A80036; stroke-width: 1.5;"/><text fill="#000000" font-family="sans-serif" font-size="14" lengthAdjust="spacingAndGlyphs" textLength="56" x="186.098" y="317.58">修改角色</text><!--link 玩家 to 移动--><path d="M410.91,100.462 C399.115,123.49 383.061,154.834 372.862,174.745 " fill="none" id="玩家-移动" style="stroke: #A80036; stroke-width: 1.0;"/><polygon fill="#A80036" points="370.527,179.304,378.1893,173.1162,372.8058,174.8535,371.0685,169.47,370.527,179.304" style="stroke: #A80036; stroke-width: 1.0;"/><!--link 玩家 to 购买/出售--><path d="M441.008,111.216 C444.724,121.533 448.61,132.643 452,143 C455.246,152.917 458.55,164.022 461.229,173.332 " fill="none" id="玩家-购买/出售" style="stroke: #A80036; stroke-width: 1.0;"/><polygon fill="#A80036" points="462.648,178.3,464.0201,168.5472,461.2736,173.4926,456.3282,170.7462,462.648,178.3" style="stroke: #A80036; stroke-width: 1.0;"/><!--link 玩家 to 进入副本--><path d="M410.865,82.351 C382.027,103.979 319.051,151.212 284.982,176.764 " fill="none" id="玩家-进入副本" style="stroke: #A80036; stroke-width: 1.0;"/><polygon fill="#A80036" points="280.574,180.07,290.174,177.87,284.574,177.07,285.374,171.47,280.574,180.07" style="stroke: #A80036; stroke-width: 1.0;"/><!--link 玩家 to 与其它玩家交互--><path d="M441.25,70 C451.193,70 461.135,70 471.078,70 " fill="none" id="玩家-与其它玩家交互" style="stroke: #A80036; stroke-width: 1.0;"/><polygon fill="#A80036" points="476.277,70,467.277,66,471.277,70,467.277,74,476.277,70" style="stroke: #A80036; stroke-width: 1.0;"/><!--link 玩家 to 转移物品（仓库、背包）--><path d="M441.327,94.607 C446.383,101.158 452.416,107.871 459,113 C495.818,141.68 544.39,162.63 582.095,176.031 " fill="none" id="玩家-转移物品（仓库、背包）" style="stroke: #A80036; stroke-width: 1.0;"/><polygon fill="#A80036" points="587.106,177.791,579.9405,171.0341,582.3886,176.1338,577.2889,178.5819,587.106,177.791" style="stroke: #A80036; stroke-width: 1.0;"/><!--link 管理员 to 与其它玩家交互--><path d="M350.101,49.333 C365.454,35.815 387.506,19.347 410.5,12 C452.667,-1.473 499.797,28.875 526.482,50.551 " fill="none" id="管理员-与其它玩家交互" style="stroke: #A80036; stroke-width: 1.0;"/><polygon fill="#A80036" points="530.585,53.947,526.2014,45.1275,526.7329,50.7593,521.1011,51.2908,530.585,53.947" style="stroke: #A80036; stroke-width: 1.0;"/><!--link 管理员 to 移动--><path d="M340.701,113.33 C346.376,133.86 352.926,157.557 357.452,173.931 " fill="none" id="管理员-移动" style="stroke: #A80036; stroke-width: 1.0;"/><polygon fill="#A80036" points="358.789,178.765,360.2475,169.0247,357.4573,173.9456,352.5365,171.1554,358.789,178.765" style="stroke: #A80036; stroke-width: 1.0;"/><!--link 管理员 to 购买/出售--><path d="M350.26,89.949 C376.527,113.361 420.897,152.908 446.709,175.914 " fill="none" id="管理员-购买/出售" style="stroke: #A80036; stroke-width: 1.0;"/><polygon fill="#A80036" points="450.686,179.459,446.6289,170.4846,446.9534,176.1321,441.3059,176.4567,450.686,179.459" style="stroke: #A80036; stroke-width: 1.0;"/><!--link 管理员 to 进入副本--><path d="M307.985,109.58 C296.338,130.961 282.343,156.654 272.875,174.036 " fill="none" id="管理员-进入副本" style="stroke: #A80036; stroke-width: 1.0;"/><polygon fill="#A80036" points="270.33,178.707,278.1487,172.718,272.7224,174.3165,271.1238,168.8902,270.33,178.707" style="stroke: #A80036; stroke-width: 1.0;"/><!--link 管理员 to 转移物品（仓库、背包）--><path d="M350.075,86.878 C362.169,95.455 377.909,105.743 393,113 C452.316,141.523 524.199,163.763 575.271,177.663 " fill="none" id="管理员-转移物品（仓库、背包）" style="stroke: #A80036; stroke-width: 1.0;"/><polygon fill="#A80036" points="580.147,178.982,572.5041,172.7702,575.3206,177.6761,570.4147,180.4925,580.147,178.982" style="stroke: #A80036; stroke-width: 1.0;"/><!--link 管理员 to 管理游戏--><path d="M307.912,84.871 C273.217,107.692 204.245,153.058 167.094,177.494 " fill="none" id="管理员-管理游戏" style="stroke: #A80036; stroke-width: 1.0;"/><polygon fill="#A80036" points="162.725,180.368,172.4425,178.7647,166.9025,177.6206,168.0466,172.0807,162.725,180.368" style="stroke: #A80036; stroke-width: 1.0;"/><!--link 管理游戏 to 赠送/拿走物品--><path d="M129.759,215.74 C115.838,238.1909 93.3926,274.3881 80.6504,294.937 " fill="none" id="管理游戏-赠送/拿走物品" style="stroke: #A80036; stroke-width: 1.0; stroke-dasharray: 7.0,7.0;"/><polygon fill="#A80036" points="132.425,211.442,124.2823,216.9824,129.7898,215.6912,131.081,221.1987,132.425,211.442" style="stroke: #A80036; stroke-width: 1.0;"/><text fill="#000000" font-family="sans-serif" font-size="13" lengthAdjust="spacingAndGlyphs" textLength="53" x="112" y="261.8979">«extend»</text><!--link 管理游戏 to 修改角色--><path d="M154.655,215.632 C160.564,224.834 167.674,235.9586 174,246 C184.606,262.8339 196.617,282.2497 204.685,295.3447 " fill="none" id="管理游戏-修改角色" style="stroke: #A80036; stroke-width: 1.0; stroke-dasharray: 7.0,7.0;"/><polygon fill="#A80036" points="151.86,211.282,153.3593,221.0161,154.5626,215.4887,160.09,216.692,151.86,211.282" style="stroke: #A80036; stroke-width: 1.0;"/><text fill="#000000" font-family="sans-serif" font-size="13" lengthAdjust="spacingAndGlyphs" textLength="53" x="187" y="261.8979">«extend»</text><!--
@startuml 1

玩家 - -> (移动)
玩家 - -> (购买/出售)
玩家 - -> (进入副本)
玩家 -> (与其它玩家交互)
玩家 - -> (转移物品（仓库、背包）)

管理员 -> (与其它玩家交互)
管理员 - -> (移动)
管理员 - -> (购买/出售)
管理员 - -> (进入副本)
管理员 - -> (转移物品（仓库、背包）)
管理员 - -> (管理游戏)


(管理游戏) <.. (赠送/拿走物品): <<extend>>
(管理游戏) <.. (修改角色): <<extend>>

@enduml

PlantUML version 1.2018.12(Sun Oct 21 18:15:15 CST 2018)
(GPL source distribution)
Java Runtime: Java(TM) SE Runtime Environment
JVM: Java HotSpot(TM) 64-Bit Server VM
Java Version: 1.8.0_151-b12
Operating System: Windows 10
OS Version: 10.0
Default Encoding: GBK
Language: zh
Country: CN
--></g></svg>