<?xml version="1.0" encoding="UTF-8" standalone="no"?><svg xmlns="http://www.w3.org/2000/svg" xmlns:xlink="http://www.w3.org/1999/xlink" contentScriptType="application/ecmascript" contentStyleType="text/css" height="311px" preserveAspectRatio="none" style="width:264px;height:311px;" version="1.1" viewBox="0 0 264 311" width="264px" zoomAndPan="magnify"><defs><filter height="300%" id="fo3nr0guylju6" width="300%" x="-1" y="-1"><feGaussianBlur result="blurOut" stdDeviation="2.0"/><feColorMatrix in="blurOut" result="blurOut2" type="matrix" values="0 0 0 0 0 0 0 0 0 0 0 0 0 0 0 0 0 0 .4 0"/><feOffset dx="4.0" dy="4.0" in="blurOut2" result="blurOut3"/><feBlend in="SourceGraphic" in2="blurOut3" mode="normal"/></filter></defs><g><!--entity 玩家--><ellipse cx="58.5" cy="18" fill="#FEFECE" filter="url(#fo3nr0guylju6)" rx="8" ry="8" style="stroke: #A80036; stroke-width: 2.0;"/><path d="M58.5,26 L58.5,53 M45.5,34 L71.5,34 M58.5,53 L45.5,68 M58.5,53 L71.5,68 " fill="none" filter="url(#fo3nr0guylju6)" style="stroke: #A80036; stroke-width: 2.0;"/><text fill="#000000" font-family="sans-serif" font-size="14" lengthAdjust="spacingAndGlyphs" textLength="28" x="44.5" y="91.0439">玩家</text><ellipse cx="58.4975" cy="171.52" fill="#FEFECE" filter="url(#fo3nr0guylju6)" rx="52.4975" ry="16.52" style="stroke: #A80036; stroke-width: 1.5;"/><text fill="#000000" font-family="sans-serif" font-size="14" lengthAdjust="spacingAndGlyphs" textLength="70" x="23.4975" y="177.58">人民币充值</text><!--entity 管理员--><ellipse cx="188.5" cy="18" fill="#FEFECE" filter="url(#fo3nr0guylju6)" rx="8" ry="8" style="stroke: #A80036; stroke-width: 2.0;"/><path d="M188.5,26 L188.5,53 M175.5,34 L201.5,34 M188.5,53 L175.5,68 M188.5,53 L201.5,68 " fill="none" filter="url(#fo3nr0guylju6)" style="stroke: #A80036; stroke-width: 2.0;"/><text fill="#000000" font-family="sans-serif" font-size="14" lengthAdjust="spacingAndGlyphs" textLength="42" x="167.5" y="91.0439">管理员</text><ellipse cx="188.598" cy="171.52" fill="#FEFECE" filter="url(#fo3nr0guylju6)" rx="42.598" ry="16.52" style="stroke: #A80036; stroke-width: 1.5;"/><text fill="#000000" font-family="sans-serif" font-size="14" lengthAdjust="spacingAndGlyphs" textLength="56" x="160.598" y="177.58">管理游戏</text><ellipse cx="188.7254" cy="283.52" fill="#FEFECE" filter="url(#fo3nr0guylju6)" rx="65.2254" ry="16.52" style="stroke: #A80036; stroke-width: 1.5;"/><text fill="#000000" font-family="sans-serif" font-size="14" lengthAdjust="spacingAndGlyphs" textLength="88" x="144.7254" y="289.58">赠送/拿走金钱</text><!--link 玩家 to 人民币充值--><path d="M58.5,94.112 C58.5,112.835 58.5,134.055 58.5,149.37 " fill="none" id="玩家-人民币充值" style="stroke: #A80036; stroke-width: 1.0;"/><polygon fill="#A80036" points="58.5,154.73,62.5,145.73,58.5,149.73,54.5,145.73,58.5,154.73" style="stroke: #A80036; stroke-width: 1.0;"/><!--link 管理员 to 管理游戏--><path d="M188.5,94.112 C188.5,112.835 188.5,134.055 188.5,149.37 " fill="none" id="管理员-管理游戏" style="stroke: #A80036; stroke-width: 1.0;"/><polygon fill="#A80036" points="188.5,154.73,192.5,145.73,188.5,149.73,184.5,145.73,188.5,154.73" style="stroke: #A80036; stroke-width: 1.0;"/><!--link 管理游戏 to 赠送/拿走金钱--><path d="M188.5,193.435 C188.5,214.8094 188.5,247.5052 188.5,266.7689 " fill="none" id="管理游戏-赠送/拿走金钱" style="stroke: #A80036; stroke-width: 1.0; stroke-dasharray: 7.0,7.0;"/><polygon fill="#A80036" points="188.5,188.26,184.5,197.26,188.5,193.26,192.5,197.26,188.5,188.26" style="stroke: #A80036; stroke-width: 1.0;"/><text fill="#000000" font-family="sans-serif" font-size="13" lengthAdjust="spacingAndGlyphs" textLength="53" x="189.5" y="233.8979">«extend»</text><!--
@startuml 1

玩家 - -> (人民币充值)

管理员 - -> (管理游戏)

(管理游戏) <.. (赠送/拿走金钱): <<extend>>

@enduml

PlantUML version 1.2018.12(Sun Oct 21 18:15:15 CST 2018)
(GPL source distribution)
Java Runtime: Java(TM) SE Runtime Environment
JVM: Java HotSpot(TM) 64-Bit Server VM
Java Version: 1.8.0_151-b12
Operating System: Windows 10
OS Version: 10.0
Default Encoding: GBK
Language: zh
Country: CN
--></g></svg>