<?xml version="1.0" encoding="UTF-8" standalone="no"?><svg xmlns="http://www.w3.org/2000/svg" xmlns:xlink="http://www.w3.org/1999/xlink" contentScriptType="application/ecmascript" contentStyleType="text/css" height="198px" preserveAspectRatio="none" style="width:222px;height:198px;" version="1.1" viewBox="0 0 222 198" width="222px" zoomAndPan="magnify"><defs><filter height="300%" id="fhq6li01olmoe" width="300%" x="-1" y="-1"><feGaussianBlur result="blurOut" stdDeviation="2.0"/><feColorMatrix in="blurOut" result="blurOut2" type="matrix" values="0 0 0 0 0 0 0 0 0 0 0 0 0 0 0 0 0 0 .4 0"/><feOffset dx="4.0" dy="4.0" in="blurOut2" result="blurOut3"/><feBlend in="SourceGraphic" in2="blurOut3" mode="normal"/></filter></defs><g><!--entity 玩家--><ellipse cx="108.5" cy="18" fill="#FEFECE" filter="url(#fhq6li01olmoe)" rx="8" ry="8" style="stroke: #A80036; stroke-width: 2.0;"/><path d="M108.5,26 L108.5,53 M95.5,34 L121.5,34 M108.5,53 L95.5,68 M108.5,53 L121.5,68 " fill="none" filter="url(#fhq6li01olmoe)" style="stroke: #A80036; stroke-width: 2.0;"/><text fill="#000000" font-family="sans-serif" font-size="14" lengthAdjust="spacingAndGlyphs" textLength="28" x="94.5" y="91.0439">玩家</text><ellipse cx="48.598" cy="170.52" fill="#FEFECE" filter="url(#fhq6li01olmoe)" rx="42.598" ry="16.52" style="stroke: #A80036; stroke-width: 1.5;"/><text fill="#000000" font-family="sans-serif" font-size="14" lengthAdjust="spacingAndGlyphs" textLength="56" x="20.598" y="176.58">攻击怪物</text><ellipse cx="168.598" cy="170.52" fill="#FEFECE" filter="url(#fhq6li01olmoe)" rx="42.598" ry="16.52" style="stroke: #A80036; stroke-width: 1.5;"/><text fill="#000000" font-family="sans-serif" font-size="14" lengthAdjust="spacingAndGlyphs" textLength="56" x="140.598" y="176.58">拾取物品</text><!--link 玩家 to 攻击怪物--><path d="M93.3595,81.65 C82.4782,102.9593 68.1077,131.1015 58.598,149.7247 " fill="none" id="玩家-攻击怪物" style="stroke: #A80036; stroke-width: 1.0;"/><polygon fill="#A80036" points="56.2901,154.2443,63.9457,148.0481,58.5641,149.7913,56.8209,144.4098,56.2901,154.2443" style="stroke: #A80036; stroke-width: 1.0;"/><!--link 玩家 to 拾取物品--><path d="M123.641,81.65 C134.522,102.9593 148.892,131.1015 158.402,149.7247 " fill="none" id="玩家-拾取物品" style="stroke: #A80036; stroke-width: 1.0;"/><polygon fill="#A80036" points="160.71,154.2443,160.1804,144.4097,158.4365,149.7911,153.0552,148.0472,160.71,154.2443" style="stroke: #A80036; stroke-width: 1.0;"/><!--
@startuml 1

玩家 - -> (攻击怪物)
玩家 - -> (拾取物品)

@enduml

PlantUML version 1.2018.12(Sun Oct 21 18:15:15 CST 2018)
(GPL source distribution)
Java Runtime: Java(TM) SE Runtime Environment
JVM: Java HotSpot(TM) 64-Bit Server VM
Java Version: 1.8.0_151-b12
Operating System: Windows 10
OS Version: 10.0
Default Encoding: GBK
Language: zh
Country: CN
--></g></svg>